<svg width="843" height="977" viewBox="0 0 843 977" fill="none" xmlns="http://www.w3.org/2000/svg">
<path d="M421.118 0C653.695 0.000237875 842.235 188.541 842.235 421.117C842.235 568.653 766.364 698.467 651.512 773.675L773.562 938.121H615.48L528.923 828.309C494.515 837.394 458.382 842.235 421.118 842.235C373.501 842.235 327.73 834.33 285.045 819.764C298.247 824.269 311.744 828.136 325.5 831.33L401.07 673.002C407.685 673.521 414.37 673.788 421.118 673.788C560.664 673.788 673.788 560.663 673.788 421.117C673.788 281.571 560.664 168.448 421.118 168.447C281.572 168.447 168.447 281.571 168.447 421.117C168.447 496.732 201.663 564.59 254.3 610.895C245.29 602.969 236.849 594.413 229.047 585.294L125.595 721.124C170.11 764.978 224.339 798.999 284.762 819.666C119.107 763.004 4.82279e-05 605.971 0 421.117C0.000120781 188.541 188.541 5.90384e-05 421.118 0ZM329.193 656.544C329.096 656.506 328.998 656.468 328.9 656.43C328.998 656.468 329.096 656.506 329.193 656.544ZM326.296 655.391C326.205 655.354 326.113 655.317 326.022 655.28C326.114 655.317 326.205 655.354 326.296 655.391ZM323.375 654.187C323.319 654.163 323.263 654.14 323.207 654.116C323.263 654.14 323.319 654.163 323.375 654.187ZM321.951 653.583C321.907 653.564 321.862 653.545 321.817 653.526C321.862 653.545 321.907 653.564 321.951 653.583ZM316.321 651.097C316.262 651.07 316.203 651.043 316.144 651.016C316.203 651.043 316.262 651.07 316.321 651.097ZM310.907 648.547C310.764 648.477 310.62 648.408 310.477 648.338C310.62 648.408 310.764 648.477 310.907 648.547ZM306.743 646.478C306.616 646.413 306.489 646.349 306.362 646.284C306.489 646.349 306.616 646.413 306.743 646.478ZM305.371 645.774C305.262 645.718 305.154 645.663 305.045 645.606C305.154 645.663 305.262 645.718 305.371 645.774ZM304.209 645.171C303.986 645.054 303.763 644.938 303.541 644.821C303.763 644.938 303.986 645.054 304.209 645.171ZM302.786 644.421C302.631 644.338 302.475 644.257 302.319 644.174C302.475 644.257 302.631 644.338 302.786 644.421ZM299.952 642.894C299.838 642.831 299.724 642.769 299.609 642.706C299.724 642.769 299.838 642.831 299.952 642.894ZM298.72 642.214C298.551 642.12 298.382 642.027 298.214 641.934C298.382 642.027 298.551 642.12 298.72 642.214ZM297.474 641.518C297.271 641.404 297.069 641.29 296.867 641.176C297.069 641.29 297.271 641.404 297.474 641.518ZM296.052 640.712C295.892 640.621 295.732 640.53 295.572 640.438C295.732 640.53 295.892 640.621 296.052 640.712ZM294.73 639.953C294.576 639.864 294.421 639.774 294.267 639.685C294.421 639.774 294.576 639.864 294.73 639.953ZM293.213 639.068C293.14 639.026 293.067 638.983 292.994 638.94C293.067 638.983 293.14 639.026 293.213 639.068ZM290.85 637.66C290.644 637.536 290.439 637.413 290.233 637.288C290.439 637.413 290.644 637.536 290.85 637.66ZM289.72 636.976C289.455 636.814 289.191 636.653 288.927 636.49C289.191 636.653 289.455 636.814 289.72 636.976ZM286.859 635.204C286.693 635.1 286.526 634.996 286.36 634.891C286.526 634.996 286.693 635.1 286.859 635.204ZM285.698 634.47C285.489 634.336 285.279 634.203 285.07 634.069C285.279 634.203 285.489 634.336 285.698 634.47ZM284.411 633.646C284.211 633.516 284.01 633.387 283.811 633.258C284.01 633.387 284.211 633.516 284.411 633.646ZM283.226 632.877C282.962 632.705 282.698 632.533 282.435 632.359C282.698 632.533 282.962 632.705 283.226 632.877ZM282.082 632.127C281.805 631.944 281.529 631.762 281.253 631.578C281.529 631.762 281.805 631.944 282.082 632.127ZM280.524 631.09C280.345 630.969 280.165 630.849 279.986 630.729C280.165 630.849 280.345 630.969 280.524 631.09ZM279.409 630.338C279.164 630.171 278.918 630.005 278.674 629.838C278.918 630.005 279.164 630.171 279.409 630.338ZM278.048 629.406C277.864 629.28 277.68 629.153 277.496 629.026C277.68 629.153 277.864 629.28 278.048 629.406ZM276.771 628.522C276.575 628.386 276.379 628.25 276.184 628.113C276.379 628.25 276.575 628.386 276.771 628.522ZM275.78 627.828C275.484 627.62 275.188 627.412 274.894 627.202C275.188 627.412 275.484 627.62 275.78 627.828ZM274.501 626.922C274.247 626.741 273.993 626.559 273.739 626.377C273.993 626.559 274.247 626.741 274.501 626.922ZM272.002 625.114C271.76 624.938 271.519 624.761 271.278 624.583C271.519 624.761 271.76 624.937 272.002 625.114ZM266.361 620.864C267.82 621.996 269.293 623.111 270.777 624.212C269.293 623.111 267.82 621.996 266.361 620.864ZM256.961 613.204C259.948 615.759 262.996 618.245 266.102 620.661C262.996 618.245 259.948 615.759 256.961 613.204ZM256.456 612.77C256.245 612.588 256.034 612.407 255.824 612.226C256.034 612.407 256.245 612.588 256.456 612.77ZM273.196 625.984C272.938 625.797 272.68 625.61 272.422 625.422C272.68 625.61 272.938 625.797 273.196 625.984Z" fill="#01173B"/>
<path d="M285.064 540.33L101.068 782.634L239.713 976.996L431.484 574.019C533.848 571.427 537.735 409.459 535.143 383.544C533.07 362.812 513.548 348.991 504.046 344.672H279.881L285.064 540.33Z" fill="url(#paint0_linear_622_684)"/>
<defs>
<linearGradient id="paint0_linear_622_684" x1="318.355" y1="344.672" x2="318.355" y2="976.996" gradientUnits="userSpaceOnUse">
<stop stop-color="#025EF3"/>
<stop offset="1" stop-color="#04F1A2"/>
</linearGradient>
</defs>
</svg>
