<svg width="1348" height="256" viewBox="0 0 1348 256" fill="none" xmlns="http://www.w3.org/2000/svg">
<path d="M85.6879 13.4736C97.0692 13.4736 107.794 15.6551 117.862 20.018C127.93 24.3809 136.685 30.2708 144.126 37.6878C151.568 45.1047 157.478 53.8305 161.855 63.8652C166.232 73.6817 168.421 84.2618 168.421 95.6054C168.421 106.949 166.232 117.638 161.855 127.673C157.478 137.707 151.568 146.433 144.126 153.85C136.685 161.267 127.93 167.157 117.862 171.52C107.794 175.883 97.0692 178.064 85.6879 178.064H52.8573L68.9443 138.798H85.6879C97.5069 138.798 107.684 134.544 116.22 126.037C124.756 117.529 129.024 107.385 129.024 95.6054C129.024 83.6074 124.756 73.5727 116.22 65.5013C107.684 56.9936 97.5069 52.7398 85.6879 52.7398H39.3967V242.526H0V13.4736H85.6879Z" fill="url(#paint0_linear_628_817)"/>
<path d="M195.369 13.4736H350.316V59.2842H195.369V13.4736ZM195.369 242.526C195.369 242.526 195.368 146.825 195.369 105.095C195.37 60.3694 308.351 105.095 308.351 105.095V150.905H240.561V196.716H350.316V242.526H195.369Z" fill="url(#paint1_linear_628_817)"/>
<path d="M606.316 115.9C606.316 128.212 604.531 139.887 600.96 150.925C597.6 161.964 592.768 172.153 586.467 181.493L606.316 201.871V256L491.632 140.1V85.9701L559.057 153.791C565.358 142.328 568.508 129.698 568.508 115.9C568.508 105.499 566.618 95.6285 562.837 86.2885C559.056 76.9486 553.49 68.5638 546.139 61.1343C538.787 53.7048 530.491 48.0796 521.249 44.2587C512.007 40.2255 502.135 38.209 491.632 38.209C481.34 38.209 471.573 40.2255 462.331 44.2587C453.089 48.0796 444.793 53.7048 437.441 61.1343C430.09 68.5638 424.524 76.9486 420.743 86.2885C416.962 95.6285 415.072 105.499 415.072 115.9C415.072 126.302 416.962 136.279 420.743 145.831C424.524 155.171 430.09 163.556 437.441 170.985C444.793 178.415 453.089 184.04 462.331 187.861C471.573 191.682 481.34 193.592 491.632 193.592C494.363 193.592 496.989 193.486 499.509 193.274C502.24 192.849 504.865 192.425 507.386 192L537.317 222.249C530.386 225.221 523.034 227.556 515.262 229.254C507.701 230.952 499.824 231.801 491.632 231.801C475.879 231.801 460.966 228.829 446.893 222.886C433.03 216.73 420.953 208.451 410.661 198.05C400.368 187.436 392.177 175.124 386.086 161.114C380.204 146.892 377.264 131.821 377.264 115.9C377.264 99.9801 380.204 85.0149 386.086 71.005C392.177 56.7828 400.368 44.471 410.661 34.0696C420.953 23.456 433.03 15.1774 446.893 9.23382C460.966 3.07794 475.879 0 491.632 0C507.596 0 522.509 3.07794 536.372 9.23382C550.235 15.1774 562.312 23.456 572.604 34.0696C583.107 44.471 591.298 56.7828 597.179 71.005C603.271 85.0149 606.316 99.9801 606.316 115.9Z" fill="#01173B"/>
<path d="M633.264 155.813V13.4736H678.737V155.813C678.737 183.3 692.055 196.716 719.339 196.716H769.685V13.4736H815.158V242.526H719.339C661.522 242.526 633.264 214.058 633.264 155.813Z" fill="url(#paint2_linear_628_817)"/>
<path d="M842.105 242.526V13.4736H889.263V242.526H842.105Z" fill="url(#paint3_linear_628_817)"/>
<path d="M1084.63 95.6054C1084.63 103.895 1083.43 111.857 1081.02 119.492C1078.83 126.909 1075.66 133.781 1071.5 140.107C1067.56 146.433 1062.64 152.214 1056.73 157.45C1051.04 162.467 1044.69 166.612 1037.68 169.884L1084.63 242.526H1037.68L995.989 178.064H969.068L985.155 138.798H1002.23C1014.05 138.798 1024.22 134.544 1032.76 126.037C1036.7 121.892 1039.76 117.202 1041.95 111.966C1044.14 106.731 1045.24 101.277 1045.24 95.6054C1045.24 89.9336 1044.14 84.48 1041.95 79.2445C1039.76 74.009 1036.7 69.4279 1032.76 65.5013C1024.22 56.9936 1014.05 52.7398 1002.23 52.7398H955.608V242.526H916.211V13.4736H1002.23C1013.61 13.4736 1024.22 15.6551 1034.07 20.018C1044.14 24.3809 1052.9 30.2708 1060.34 37.6878C1067.78 45.1047 1073.69 53.8305 1078.07 63.8652C1082.44 73.6818 1084.63 84.2618 1084.63 95.6054Z" fill="url(#paint4_linear_628_817)"/>
<path d="M1111.58 13.4736H1266.53V59.2842H1111.58V13.4736ZM1111.58 242.526C1111.58 242.526 1111.58 146.825 1111.58 105.095C1111.58 60.3694 1224.56 105.095 1224.56 105.095V150.905H1156.77V196.716H1266.53V242.526H1111.58Z" fill="url(#paint5_linear_628_817)"/>
<circle cx="1320.42" cy="215.578" r="26.9474" fill="#01173B"/>
<defs>
<linearGradient id="paint0_linear_628_817" x1="84.2105" y1="13.4736" x2="84.2105" y2="242.526" gradientUnits="userSpaceOnUse">
<stop offset="0.379918" stop-color="#025EF3"/>
<stop offset="1" stop-color="#04F1A2"/>
</linearGradient>
<linearGradient id="paint1_linear_628_817" x1="272.842" y1="13.4736" x2="272.842" y2="242.526" gradientUnits="userSpaceOnUse">
<stop offset="0.379918" stop-color="#025EF3"/>
<stop offset="1" stop-color="#04F1A2"/>
</linearGradient>
<linearGradient id="paint2_linear_628_817" x1="724.211" y1="13.4736" x2="724.211" y2="242.526" gradientUnits="userSpaceOnUse">
<stop offset="0.379918" stop-color="#025EF3"/>
<stop offset="1" stop-color="#04F1A2"/>
</linearGradient>
<linearGradient id="paint3_linear_628_817" x1="865.684" y1="13.4736" x2="865.684" y2="242.526" gradientUnits="userSpaceOnUse">
<stop offset="0.379918" stop-color="#025EF3"/>
<stop offset="1" stop-color="#04F1A2"/>
</linearGradient>
<linearGradient id="paint4_linear_628_817" x1="1000.42" y1="13.4736" x2="1000.42" y2="242.526" gradientUnits="userSpaceOnUse">
<stop offset="0.379918" stop-color="#025EF3"/>
<stop offset="1" stop-color="#04F1A2"/>
</linearGradient>
<linearGradient id="paint5_linear_628_817" x1="1189.05" y1="13.4736" x2="1189.05" y2="242.526" gradientUnits="userSpaceOnUse">
<stop offset="0.379918" stop-color="#025EF3"/>
<stop offset="1" stop-color="#04F1A2"/>
</linearGradient>
</defs>
</svg>
